<svg width="381" height="453" fill="none" xmlns="http://www.w3.org/2000/svg"><path d="M23.709 15.861c-20.297 32-18.969 76.375 3.212 107.095 14.783 20.489 36.95 34.232 54.554 52.312 17.603 18.079 30.982 44.767 21.687 68.273-9.459 23.924-37.166 33.649-57.905 48.812-22.882 16.709-38.416 41.657-43.34 69.606a109.949 109.949 0 0016.936 80.279h215.509s37.862-72.331-10.812-127.469c-48.673-55.139-74.812-56.026-73.017-92.185 1.796-36.159 27.037-47.887 41.466-61.453 14.429-13.566 84.727-45.173 43.261-145.282l-211.551.012z" fill="#FAFAFA"/><path d="M23.703 15.861h56.691l154.86-.114h.164v.152a199.47 199.47 0 018.093 23.265 135.64 135.64 0 014.578 25.357c.746 8.968.287 17.995-1.366 26.84a86.419 86.419 0 01-9.737 26.093 93.545 93.545 0 01-8.118 11.803 107.75 107.75 0 01-9.927 10.65 143.909 143.909 0 01-11.268 9.572c-3.92 3.043-8.017 5.909-12.013 8.951-1.998 1.509-3.794 3.208-5.741 4.907a176.345 176.345 0 01-5.881 4.881c-3.983 3.195-8.004 6.339-11.798 9.877a63.265 63.265 0 00-17.704 25.458 62.262 62.262 0 00-3.339 15.62c-.114 1.268-.291 2.662-.341 4.006-.051 1.344-.101 2.688 0 4.032.029 2.698.299 5.389.809 8.038a36.725 36.725 0 006.399 14.859 81.48 81.48 0 0011.166 12.134c8.182 7.493 16.87 14.656 25.178 22.39s16.439 15.797 24.28 24.33c4 4.223 7.742 8.686 11.204 13.363a93.094 93.094 0 019.042 15.1 99.542 99.542 0 019.282 34.232 125.945 125.945 0 01-2.1 36.007 148.146 148.146 0 01-4.628 17.673 130.118 130.118 0 01-6.829 17.053l-.088.177H18.67l-.09-.139A111.567 111.567 0 01.536 391.423a107.794 107.794 0 017.461-51.475 112.072 112.072 0 0128.479-40.799 129.73 129.73 0 0119.449-14.226c6.727-4.183 13.518-8.063 19.93-12.298a91.61 91.61 0 0017.552-14.301 48.285 48.285 0 0010.85-18.865 47.151 47.151 0 00.86-21.059 69.07 69.07 0 00-6.664-19.36 94.466 94.466 0 00-10.85-16.482 130.028 130.028 0 00-13.127-13.731c-9.117-8.419-18.463-15.785-26.86-23.354-4.21-3.803-8.194-7.607-11.874-11.499a108.681 108.681 0 01-9.838-12.159 93.273 93.273 0 01-12.33-25.623 96.341 96.341 0 01-4.198-24.28c-.177-1.876-.101-3.727-.101-5.54 0-1.813 0-3.575.164-5.287.164-1.711.253-3.385.38-5.071.126-1.686.467-3.195.682-4.73a90.414 90.414 0 018.448-26.852 33.979 33.979 0 011.947-3.804l1.556-2.65c.822-1.407 1.264-2.117 1.264-2.117l-1.264 2.155-1.505 2.612a38.28 38.28 0 00-1.923 3.804 90.862 90.862 0 00-8.346 26.89c-.215 1.522-.468 3.094-.657 4.704-.19 1.61-.253 3.297-.38 5.008-.126 1.712-.126 3.474-.139 5.275-.012 1.8-.063 3.651.114 5.528a95.551 95.551 0 004.236 24.19 92.662 92.662 0 0012.317 25.522 106.565 106.565 0 009.826 12.095c3.667 3.905 7.65 7.709 11.862 11.411 8.397 7.607 17.704 14.897 26.885 23.328a130.911 130.911 0 0113.227 13.832 95.42 95.42 0 0110.914 16.596 69.332 69.332 0 016.727 19.487 47.608 47.608 0 01-.86 21.287 48.585 48.585 0 01-10.951 19.081 92.813 92.813 0 01-17.628 14.403c-6.437 4.247-13.228 8.127-19.943 12.311a130.002 130.002 0 00-19.373 14.174A111.653 111.653 0 008.54 340.125a107.173 107.173 0 00-7.398 51.209A111.073 111.073 0 0019.1 442.048l-.253-.14h215.51l-.291.178a128.275 128.275 0 006.803-17.015 147.439 147.439 0 004.603-17.598 125.173 125.173 0 002.087-35.829 98.466 98.466 0 00-9.219-34.042 93.238 93.238 0 00-8.966-14.998 147.842 147.842 0 00-11.153-13.313A398.808 398.808 0 00193.978 285c-8.296-7.722-16.958-14.872-25.165-22.403a83.018 83.018 0 01-11.268-12.222 37.473 37.473 0 01-6.563-15.05 47.956 47.956 0 01-.822-8.152c-.063-1.357 0-2.713 0-4.07 0-1.356.228-2.7.329-4.044a63.158 63.158 0 013.414-15.709 63.72 63.72 0 0117.869-25.674c3.794-3.524 7.853-6.719 11.836-9.902a202.704 202.704 0 005.868-4.855c1.909-1.649 3.794-3.424 5.766-4.945 4.022-3.043 8.106-5.908 12.014-8.938a145.73 145.73 0 0011.242-9.522 109.358 109.358 0 009.876-10.586 96.17 96.17 0 008.081-11.741 85.854 85.854 0 009.687-25.914 100.111 100.111 0 001.378-26.625 135.857 135.857 0 00-4.54-25.357 201.505 201.505 0 00-7.992-23.341l.215.14-154.772-.115H27.396l-3.694-.114z" fill="#263238"/><path d="M226.656 74.55c31.741 5.236-18.298 61.604-46.638 83.842-16.439 12.869-34.017 26.84-41.807 46.213-8.852 21.985-2.288 46.682-6.563 68.793a3.065 3.065 0 01-3.334 2.505 3.059 3.059 0 01-1.986-1.037 3.075 3.075 0 01-.75-2.114c.203-14.517-.177-29.021-2.529-43.31-3.402-20.285-11.166-40.305-25.291-55.151-11.571-12.133-26.734-20.184-39.063-31.519-18.008-16.545-36.509-37.883-38.317-62.302 0 0 34.574-27.892 53.77-24.406 22.434 4.12 44.513 38.822 79.264 34.853 24.178-2.776 36.432-22.428 73.244-16.368zm2.813 301.684c-.797-7.962-2.921-16.964-9.965-20.717-4.262-2.282-9.459-2.028-14.138-.799-4.679 1.23-9.067 3.373-13.695 4.755a44.752 44.752 0 01-28.036-.9c-8.612-3.17-15.997-8.875-24.027-13.414-8.03-4.539-17.35-7.861-26.253-5.642-15.352 3.804-23.344 22.365-38.519 26.84-6.753 1.978-13.999.862-20.853-.684-6.854-1.547-13.746-3.563-20.764-3.297-5.514.203-11.242 2.118-15.1 5.896l-.1.114a14.93 14.93 0 00-1.745 2.054c-4.705 6.339-5.463 14.745-4.01 22.428 1.62 8.609 5.628 16.558 9.928 24.178 5.058 8.976 10.825 17.902 19.196 23.886 10.344 7.392 23.332 2.295 35.99 3.296 29.503 2.333 61.243 3.918 90.759 1.636 15.592-1.268 30.198.482 42.565-9.116 8.701-6.745 14.366-16.913 17.098-27.588 2.731-10.675 2.769-21.959 1.669-32.926z" fill="#62BF40"/><path opacity=".24" d="M173.78 360.994c-1.656 2.536-2.377 5.984-.771 8.571 1.606 2.586 3.794 4.957 4.477 7.937 1.1 4.665-1.708 9.229-3.794 13.553a43.264 43.264 0 00-4.186 25.014 34.045 34.045 0 0012.38 21.845c2.997 2.321 6.892 4.121 10.509 2.98 3.402-1.065 5.59-4.526 6.323-8.038.734-3.512.114-7.126-.329-10.663a166.062 166.062 0 011.265-49.547c.481-2.726.936-5.845-.784-8.013a9.245 9.245 0 00-4.54-2.536c-6.576-2.193-13.67.241-20.486-1.052" fill="#000"/><path d="M3.013 452.051s-.594-9.914 12.305-15.442h226.675s11.824 6.009 13.278 15.214l-252.258.228zM237.179 17.066l-.366.164-213.145-1.369s-.759-.482-1.884-1.382a8.103 8.103 0 01-2.772-4.102 8.122 8.122 0 01.129-4.954 8.099 8.099 0 012.982-3.951A8.066 8.066 0 0126.842 0l206.885 1.674c8.511.076 11.192 11.74 3.452 15.392z" fill="#263238"/><path opacity=".24" d="M203.063 98.589c.43.824-1.176 2.535-4.224 5.325-3.048 2.789-7.588 6.453-13.228 11.055a173.428 173.428 0 01-21.497 15.214 86.167 86.167 0 01-14.72 6.783 69.468 69.468 0 01-8.46 2.346 57.685 57.685 0 01-9.143 1.192 48.69 48.69 0 01-18.374-2.536 66.131 66.131 0 01-14.77-7.607c-4.25-2.815-7.904-5.604-11.382-8.279a205.508 205.508 0 01-9.383-7.683c-11.192-9.725-17.084-16.875-15.946-18.257 1.138-1.382 9.105 3.119 21.498 10.726l10.116 6.212c3.63 2.206 7.512 4.653 11.483 6.91a64.212 64.212 0 0012.456 5.642 39.921 39.921 0 0013.708 1.623c9.712-.507 19.133-3.931 27.289-7.886 8.157-3.956 15.542-8.571 21.941-12.172a110.413 110.413 0 0115.832-7.734c4.009-1.407 6.437-1.673 6.804-.874z" fill="#000"/><path d="M125.734 299.884a3.658 3.658 0 012.784.03 3.675 3.675 0 011.967 4.774 3.675 3.675 0 01-1.951 1.992 3.658 3.658 0 01-2.784.043 3.67 3.67 0 01-2.012-1.93 3.686 3.686 0 01-.08-2.791 3.674 3.674 0 011.899-2.042" fill="#62BF40"/><path d="M49.493 133.948a5.522 5.522 0 01-.758-.76l-2.062-2.257c-.872-1.002-2.023-2.168-3.2-3.652l-4.02-5.071c-1.379-1.952-2.934-4.057-4.503-6.339l-2.314-3.69c-.392-.634-.81-1.268-1.189-1.939l-1.112-2.054a85.832 85.832 0 01-7.854-18.955 80.06 80.06 0 01-2.984-20.285c0-1.585.089-3.12.114-4.628 0-.748 0-1.483.101-2.206.101-.723.152-1.433.228-2.13.164-1.395.265-2.751.455-4.044.19-1.294.455-2.536.67-3.69.354-2.37.987-4.437 1.43-6.339.24-.913.43-1.775.67-2.536l.695-2.117.974-2.903c.093-.346.22-.681.38-1.002a5.778 5.778 0 01-.254 1.04c-.215.735-.493 1.711-.86 2.941l-.632 2.117c-.215.774-.392 1.636-.62 2.536-.404 1.839-.999 3.918-1.264 6.34-.203 1.166-.405 2.396-.62 3.676-.215 1.28-.266 2.625-.417 4.02 0 .697-.14 1.394-.215 2.117-.076.722 0 1.458-.076 2.193 0 1.496-.101 3.017-.089 4.59a80.5 80.5 0 002.947 20.17 87.382 87.382 0 007.752 18.841c.367.685.733 1.369 1.087 2.054.354.685.797 1.268 1.177 1.927l2.276 3.69c1.543 2.332 3.073 4.437 4.413 6.339l3.946 5.071c1.138 1.509 2.263 2.688 3.098 3.728l1.973 2.345c.237.273.456.561.657.862zM37.497 322.299c.063-.146.14-.286.228-.418l.759-1.192c.341-.532.759-1.166 1.264-1.927l.797-1.268c.316-.418.683-.837 1.05-1.268l2.529-3.042c.974-1.053 2.086-2.143 3.262-3.335a85.737 85.737 0 018.675-7.328c6.715-5.071 15.378-10.143 24.76-16.089a141.573 141.573 0 0014.202-10.029 66.303 66.303 0 0012.734-13.49 63.978 63.978 0 0010.307-34.016 80.675 80.675 0 00-4.856-28.907 108.054 108.054 0 00-8.372-18.003 147.055 147.055 0 00-2.794-4.641l-.747-1.191a6.182 6.182 0 01-.24-.419c.113.114.211.242.291.381l.809 1.166a77.948 77.948 0 012.896 4.577c3.44 5.7 6.32 11.72 8.599 17.978a80.59 80.59 0 015.059 29.072 68.661 68.661 0 01-.696 8.545 62.642 62.642 0 01-1.859 8.761 59.419 59.419 0 01-7.954 17.078 66.758 66.758 0 01-12.873 13.629 143.384 143.384 0 01-14.278 10.041c-9.42 5.896-18.096 10.917-24.81 15.95a89.102 89.102 0 00-8.7 7.214c-1.177 1.179-2.302 2.244-3.289 3.284l-2.529 2.979c-.38.457-.746.875-1.062 1.268l-.822 1.204-1.265 1.89-.809 1.153c-.078.138-.167.27-.266.393zm-11.753 22.404a3.984 3.984 0 01-.278.596l-.91 1.61a40.649 40.649 0 00-1.379 2.536c-.493.988-1.125 2.155-1.656 3.486-.279.659-.582 1.344-.886 2.054-.303.71-.556 1.496-.86 2.282-.606 1.572-1.087 3.297-1.643 5.072a69.064 69.064 0 00-2.239 24.444c.215 1.876.367 3.676.696 5.325.139.824.253 1.635.417 2.396.165.761.342 1.496.506 2.193.278 1.407.695 2.637.999 3.728a37.47 37.47 0 00.885 2.789l.595 1.75c.085.197.14.407.164.621a2.413 2.413 0 01-.29-.571 95.986 95.986 0 00-.71-1.711 27.465 27.465 0 01-.998-2.764c-.341-1.091-.784-2.32-1.1-3.728-.177-.697-.354-1.432-.544-2.193-.19-.761-.304-1.585-.468-2.409-.354-1.674-.531-3.474-.759-5.363a66.52 66.52 0 012.251-24.596c.57-1.826 1.075-3.563 1.72-5.135.316-.786.57-1.559.898-2.282l.936-2.067c.556-1.268 1.264-2.447 1.758-3.461.445-.872.94-1.719 1.48-2.536l1.01-1.559c.254-.342.38-.52.405-.507zm156.347 30.478l-.253.178-.784.494-3.073 1.852-2.226 1.267c-.834.469-1.757.901-2.744 1.395-1.998.964-4.198 2.193-6.803 3.182l-4.047 1.661c-1.404.558-2.934 1.002-4.477 1.534-3.072 1.129-6.487 1.94-10.04 2.866a117.423 117.423 0 01-47.561 1.267c-3.617-.735-7.056-1.369-10.192-2.332-1.569-.457-3.111-.812-4.553-1.268l-4.123-1.509c-2.642-.849-4.919-1.952-6.955-2.815-1.011-.443-1.96-.836-2.807-1.267l-2.302-1.205-3.161-1.686-.81-.457-.265-.164s.114 0 .303.114l.835.393 3.212 1.572 2.314 1.141c.86.406 1.821.773 2.833 1.204 2.036.812 4.312 1.889 6.968 2.701l4.072 1.483c1.441.482 2.984.824 4.552 1.268 3.124.938 6.55 1.534 10.117 2.257a119.905 119.905 0 0047.32-1.268c3.541-.913 6.943-1.686 10.016-2.789 1.543-.52 3.06-.938 4.464-1.496l4.046-1.61c2.606-.964 4.819-2.156 6.817-3.081.986-.482 1.922-.9 2.756-1.268l2.251-1.268 3.124-1.75.822-.431c.253-.139.354-.177.354-.165zm13.173-268.339a1.353 1.353 0 01-.266.241l-.835.684c-.771.622-1.846 1.496-3.224 2.536-2.808 2.231-6.88 5.464-12.026 9.319a173.849 173.849 0 01-18.805 12.577 84.649 84.649 0 01-12.114 5.591 55.105 55.105 0 01-13.987 3.119 53.002 53.002 0 01-26.859-5.604 91.065 91.065 0 01-10.382-6.187c-3.086-2.181-5.906-4.298-8.397-6.339-5.058-4.032-8.928-7.443-11.66-9.775l-3.123-2.714-.797-.71-.265-.266s.114 0 .303.203l.847.672 3.2 2.612c2.782 2.282 6.753 5.629 11.786 9.61a178.126 178.126 0 008.422 6.238 92.45 92.45 0 0010.331 6.085 52.813 52.813 0 0026.557 5.49 54.682 54.682 0 0013.821-3.068 84.672 84.672 0 0012.039-5.515 181.96 181.96 0 0018.83-12.311c5.159-3.803 9.269-6.973 12.14-9.141l3.3-2.536.873-.634c.087-.073.185-.133.291-.177z" fill="#263238"/><path opacity=".24" d="M81.22 385.831c5.995-4.64 14.417-3.524 21.827-1.952 7.411 1.572 14.872 4.095 22.371 3.043 5.652-.799 10.837-3.576 16.439-4.793s12.342-.317 15.441 4.488a119.84 119.84 0 01-76.04-.786" fill="#000"/><path d="M290.285 351.421l-27.189-30.567-.278 37.16 8.194 23.836-81.464 14.161-3.452-64.444-5.868-49.446a13.466 13.466 0 011.806-8.477 13.41 13.41 0 016.591-5.609l22.421-8.875 31.615 5.807 12.709 4.843a34.889 34.889 0 0113.834 9.648l38.241 43.842" fill="#62BF40"/><path d="M261.226 313.501a39.84 39.84 0 004.591-.33 18.603 18.603 0 009.813-4.729 18.684 18.684 0 005.501-9.42 42.59 42.59 0 00.696-4.577c.102.414.141.842.113 1.268.01 1.15-.109 2.299-.354 3.423a18.315 18.315 0 01-5.51 9.798 18.242 18.242 0 01-10.183 4.719 16.162 16.162 0 01-3.427.076 3.94 3.94 0 01-1.24-.228z" fill="#fff"/><path d="M263.593 356.43c.19 0 .241-12.881.114-28.755-.126-15.873-.392-28.742-.582-28.742-.19 0-.241 12.869-.114 28.755s.392 28.742.582 28.742z" fill="#263238"/><path d="M260.599 365.875l-49.218-19.867a11.257 11.257 0 01-4.873-3.796 11.293 11.293 0 01-2.145-5.801l-3.604-47.317s.43-20.133-12.115-21.109l-7.094 2.814c-9.219 4.907-11.495 18.372-10.243 28.755 1.783 14.758 2.529 35.652 4.514 48.457 1.644 10.485 7.588 19.703 17.856 22.403l60.624 13.16 6.298-17.699z" fill="#62BF40"/><path d="M201.473 296.309c.082.354.133.714.152 1.077.076.774.19 1.813.316 3.119.253 2.777.607 6.682 1.037 11.474.43 4.793.911 10.637 1.467 17.027.126 1.611.266 3.246.405 4.92.097 1.702.309 3.397.632 5.071a8.386 8.386 0 002.453 4.425 16.444 16.444 0 004.54 2.84c13.569 5.883 26.076 10.751 35.155 14.162l10.787 3.981 2.934 1.077c.343.114.677.254.999.419a6.08 6.08 0 01-1.05-.292l-2.971-.963c-2.53-.863-6.323-2.143-10.85-3.804a645.08 645.08 0 01-35.282-13.946 17.203 17.203 0 01-4.717-2.967 9.046 9.046 0 01-2.63-4.767 36.948 36.948 0 01-.62-5.148c-.139-1.686-.266-3.321-.392-4.932-.493-6.339-.949-12.171-1.265-17.039-.316-4.869-.632-8.711-.834-11.487a154.133 154.133 0 01-.19-3.132 6.505 6.505 0 01-.076-1.115zm-28.204 25.724c.05.208.08.42.088.634l.164 1.826c.152 1.686.342 3.955.582 6.719.24 2.764.62 6.2 1.113 9.928a96.273 96.273 0 002.213 11.981 18.086 18.086 0 002.403 5.718 34.826 34.826 0 003.68 4.526 31.618 31.618 0 007.878 5.921 29.683 29.683 0 008.65 2.84 2.578 2.578 0 01-.645 0 14.14 14.14 0 01-1.821-.241 23.916 23.916 0 01-6.399-2.168c-3-1.514-5.734-3.51-8.093-5.908a33.666 33.666 0 01-3.794-4.603 18.421 18.421 0 01-2.529-5.895 89.859 89.859 0 01-2.188-12.083 208.493 208.493 0 01-1.34-16.71v-1.838a2.039 2.039 0 01.038-.647z" fill="#263238"/><path d="M194.308 355.136a7.305 7.305 0 01.898-2.624 16.962 16.962 0 019.99-8.558 7.116 7.116 0 012.731-.469c-.827.346-1.671.65-2.529.913a19.346 19.346 0 00-5.577 3.334 19.644 19.644 0 00-4.16 4.995c-.885 1.458-1.252 2.447-1.353 2.409z" fill="#263238"/><path d="M203.99 319.155c.107.032.21.079.303.14l.886.469a31.962 31.962 0 003.515 1.483 27.75 27.75 0 0013.797 1.192 27.232 27.232 0 0017.147-10.688 22.75 22.75 0 004.49-11.182 15.269 15.269 0 00-.658-6.34 12.932 12.932 0 00-3.541-5.439 10.843 10.843 0 00-5.779-2.814 6.866 6.866 0 00-3.083.15 6.904 6.904 0 00-2.709 1.485 3.812 3.812 0 00-1.138 2.625c.022.984.359 1.935.961 2.713a7.377 7.377 0 005.059 2.624 20.564 20.564 0 0010.111-1.282 20.607 20.607 0 008.263-5.982 20.71 20.71 0 003.718-6.986c.581-1.93.896-3.931.936-5.947a22.74 22.74 0 00-.279-3.803c-.075-.393-.139-.723-.177-.976a1.787 1.787 0 010-.343c.523 1.639.779 3.351.759 5.072a21.36 21.36 0 01-.834 6.047 20.864 20.864 0 01-8.577 11.519 20.769 20.769 0 01-13.971 3.226 7.945 7.945 0 01-5.412-2.84 5.19 5.19 0 01-1.088-3.093 4.393 4.393 0 011.265-3.081 7.57 7.57 0 016.323-1.826c2.3.342 4.44 1.382 6.133 2.98a13.367 13.367 0 013.718 5.718c.688 2.125.921 4.371.683 6.593a23.252 23.252 0 01-4.641 11.41 27.183 27.183 0 01-14.187 10.015 27.11 27.11 0 01-17.339-.633 19.54 19.54 0 01-4.654-2.206zm-32.235-12.615c.213-.379.487-.722.809-1.014a18.148 18.148 0 012.656-2.32 22.29 22.29 0 0110.888-3.867 20.984 20.984 0 016.424.266c1.719.358 3.382.947 4.945 1.75 1.048.53 2.055 1.14 3.009 1.825.37.227.703.51.987.837-.076.102-1.543-1.014-4.199-2.244a20.567 20.567 0 00-11.09-1.775 23.304 23.304 0 00-10.699 3.588c-2.44 1.636-3.642 3.043-3.73 2.954zm7.873-33.839a19.486 19.486 0 003.984 2.904 14.18 14.18 0 005.058 1.496 13.452 13.452 0 006.323-.888 13.29 13.29 0 005.059-3.803 14.608 14.608 0 002.529-4.653c.455-1.59.714-3.229.771-4.882.123.437.179.891.165 1.344a12.39 12.39 0 01-.493 3.677 14.185 14.185 0 01-2.53 4.894 12.93 12.93 0 01-5.338 4.109 12.895 12.895 0 01-6.675.861 14 14 0 01-5.223-1.674 12.194 12.194 0 01-2.934-2.256 3.637 3.637 0 01-.696-1.129zm42.885 77.808c.002-.315.036-.63.101-.938.177-.881.47-1.733.872-2.536a14.025 14.025 0 017.36-6.415 21.511 21.511 0 0114.48-.52c2.605.773 5.59 1.737 7.588 4.285a4.563 4.563 0 01.556 4.641 7.345 7.345 0 01-3.503 3.309 11.23 11.23 0 01-4.666 1.166 6.835 6.835 0 01-4.477-1.394 5.74 5.74 0 01-1.998-4.07 10.262 10.262 0 01.67-4.273 19.173 19.173 0 0110.117-10.295 19.929 19.929 0 019.687-1.673c1.208.092 2.398.343 3.541.748 0 .088-1.265-.33-3.566-.495a20.212 20.212 0 00-15.024 5.541 17.746 17.746 0 00-4.236 6.339 9.615 9.615 0 00-.62 4.019 5.076 5.076 0 001.796 3.613 6.131 6.131 0 004.047 1.268c1.52-.04 3.013-.412 4.375-1.09a6.76 6.76 0 003.212-3.005 3.946 3.946 0 00-.48-3.994 9.125 9.125 0 00-3.301-2.611 23.602 23.602 0 00-3.882-1.458 21.219 21.219 0 00-14.139.367 13.994 13.994 0 00-7.309 6.099 13.588 13.588 0 00-1.201 3.372zm-32.758 17.813c0-.127 1.872-.279 4.717-1.268a23.577 23.577 0 009.68-6.467 23.673 23.673 0 005.419-10.319c.721-2.941.696-4.856.822-4.843.089.438.11.887.063 1.331a19.346 19.346 0 01-.429 3.613 22.774 22.774 0 01-5.387 10.638 22.685 22.685 0 01-10.016 6.44 19.363 19.363 0 01-3.541.799 4.59 4.59 0 01-1.328.076zm-15.981-36.78c.187-.105.387-.186.594-.241.405-.127.987-.304 1.758-.507a21.656 21.656 0 016.715-.685c1.57.119 3.108.5 4.553 1.129a10.555 10.555 0 014.249 3.347 8.764 8.764 0 011.656 5.756 7.08 7.08 0 01-.973 3.093 4.89 4.89 0 01-2.53 2.156 3.383 3.383 0 01-3.326-.66 4.454 4.454 0 01-1.15-3.068 13.224 13.224 0 011.163-5.87 12.857 12.857 0 015.67-6.145 12.811 12.811 0 018.241-1.348c.606.094 1.203.243 1.783.444.392.152.594.241.581.266-.012.025-.847-.266-2.402-.456a13.269 13.269 0 00-6.488.836 12.452 12.452 0 00-6.791 6.644 12.833 12.833 0 00-1.074 5.591c-.027.97.317 1.913.961 2.637a2.732 2.732 0 002.668.507 4.298 4.298 0 002.226-1.876 6.556 6.556 0 00.885-2.802 8.248 8.248 0 00-1.505-5.35 9.903 9.903 0 00-3.984-3.195 13.653 13.653 0 00-4.375-1.167 22.835 22.835 0 00-6.601.469c-1.632.317-2.479.546-2.504.495z" fill="#fff"/><path opacity=".3" d="M246.462 360.233c-5.261-2.979-10.408-5.274-15.909-7.772-5.501-2.497-10.9-5.731-14.505-10.599-6.79-9.179-6.019-22.428-12.962-31.481.456 6.086.907 12.176 1.353 18.27.418 5.579-.43 11.106 3.149 14.897 3.023 3.195 8.916 5.642 13.089 7.024 8.384 2.777 17.413 6.897 25.785 9.661z" fill="#000"/><path d="M332.028 429.774s41.187 11.411 42.844 12.02c2.529.874 2.061 9.99-1.796 9.838-1.834-.063-31.614 1.116-35.408.888-3.794-.229-15.175-4.729-15.175-4.729l9.535-18.017z" fill="#62BF40"/><path d="M349.157 445.534c.509-1.518 1.117-3 1.821-4.437a36.893 36.893 0 012.909-3.804 9.12 9.12 0 00-3.517 3.449 9.143 9.143 0 00-1.213 4.779v.013zm-4.314-1.953c.203 0 .62-1.914 1.72-4.069 1.1-2.156 2.39-3.665 2.251-3.804a10.312 10.312 0 00-2.868 3.496 10.361 10.361 0 00-1.103 4.39v-.013zm-3.958-1.077c.202-1.478.523-2.936.961-4.362a28.994 28.994 0 012.238-3.867 7.757 7.757 0 00-3.199 8.229z" fill="#263238"/><path d="M341.569 437.166a7.39 7.39 0 00.443-3.069 15.263 15.263 0 00-.417-3.372 13.48 13.48 0 00-.62-1.914 2.18 2.18 0 00-.658-1.015 1.112 1.112 0 00-1.416.076 1.797 1.797 0 00-.544 1.167 6.4 6.4 0 000 1.09c.004.68.089 1.356.253 2.016a12.316 12.316 0 001.265 3.157 8.5 8.5 0 001.846 2.536c.101 0-.594-1.027-1.416-2.714a13.436 13.436 0 01-1.075-3.068 9.157 9.157 0 01-.203-1.889c0-.634 0-1.42.38-1.724a.401.401 0 01.544 0c.205.202.361.45.455.723a16.257 16.257 0 011.163 5.046c.076 1.775-.114 2.941 0 2.954z" fill="#263238"/><path d="M341.5 436.748a5.763 5.763 0 00-2.655-.431c-.985 0-1.966.119-2.922.355a7.1 7.1 0 00-1.694.621 1.747 1.747 0 00-.923 1.889 2.084 2.084 0 001.479 1.484c.606.152 1.24.152 1.847 0a6.91 6.91 0 002.68-1.268 7.18 7.18 0 001.91-1.889c-.761.446-1.491.941-2.188 1.483a7.247 7.247 0 01-2.529 1.103 3.12 3.12 0 01-1.53 0 1.394 1.394 0 01-.999-.976 1.079 1.079 0 01.607-1.154 6.11 6.11 0 011.492-.583 13.2 13.2 0 012.782-.482c1.606-.203 2.618-.038 2.643-.152zm13.979 9.23c.176-1.262.451-2.508.822-3.727a22.486 22.486 0 012.011-3.233 5.936 5.936 0 00-2.653 2.974 5.96 5.96 0 00-.18 3.986zm-28.737 1.914a7.332 7.332 0 001.593.761 38.165 38.165 0 004.578 1.42 65.696 65.696 0 0015.731 1.496c6.172-.076 11.736-.355 15.77-.52l4.768-.253a10.44 10.44 0 001.745-.178 8.41 8.41 0 00-1.758-.089h-4.768l-15.757.305a73.625 73.625 0 01-15.617-1.268c-3.946-.799-6.235-1.813-6.285-1.674z" fill="#263238"/><path d="M325.533 448.83c0 .089 1.176-.57 3.086-1.407a14.232 14.232 0 017.79-1.268 12.382 12.382 0 016.74 4.006c.731.866 1.521 1.68 2.365 2.435a12.685 12.685 0 00-2.011-2.764 16.491 16.491 0 00-2.731-2.536 9.77 9.77 0 00-4.262-1.8 13.607 13.607 0 00-8.106 1.534 10.535 10.535 0 00-2.871 1.8z" fill="#263238"/><path d="M288.263 418.377s-38.974 25.585-40.365 26.625c-2.099 1.585.303 9.154 3.945 7.848 1.72-.622 34.422-9.75 37.938-11.119 3.515-1.37 12.987-9.053 12.987-9.053l-14.505-14.301z" fill="#62BF40"/><path d="M276.698 438.612a9.145 9.145 0 00-2.607-4.186 9.11 9.11 0 00-4.399-2.217 35.7 35.7 0 013.933 2.739 38.128 38.128 0 013.073 3.664zm3.492-3.17a10.362 10.362 0 00-2.37-3.862 10.331 10.331 0 00-3.789-2.477c-.101.177 1.606 1.267 3.288 2.941 1.682 1.674 2.694 3.499 2.871 3.398zm3.504-2.257a6.354 6.354 0 00-1.695-4.298 6.318 6.318 0 00-3.794-2.535 30.01 30.01 0 013.301 3.004 27.875 27.875 0 012.188 3.829z" fill="#263238"/><path d="M281.451 428.329c.101 0-.43-1.103-.873-2.928a15.97 15.97 0 01-.467-3.233 14.082 14.082 0 010-1.927c-.005-.29.069-.575.214-.825a.395.395 0 01.532-.126c.442.177.67.938.885 1.546.186.604.313 1.224.379 1.852a13.51 13.51 0 01-.101 3.258c-.265 1.851-.632 2.979-.531 3.017a8.244 8.244 0 001.012-2.941c.242-1.111.327-2.251.253-3.385a9.59 9.59 0 00-.367-2.003 8.259 8.259 0 00-.38-1.027 1.815 1.815 0 00-.885-.951 1.094 1.094 0 00-1.366.367 2.268 2.268 0 00-.316 1.167 14.267 14.267 0 00.607 5.35 7.453 7.453 0 001.404 2.789z" fill="#263238"/><path d="M281.316 427.911c0 .101.961-.355 2.529-.748a14.021 14.021 0 012.795-.381 6.182 6.182 0 011.606.102 1.104 1.104 0 01.936.912 1.42 1.42 0 01-.671 1.268c-.435.275-.929.44-1.441.482a6.962 6.962 0 01-2.744-.279 18.585 18.585 0 00-2.53-.748 7.191 7.191 0 002.403 1.268c.939.36 1.944.512 2.947.444a3.662 3.662 0 001.757-.558 2.05 2.05 0 00.974-1.851 1.75 1.75 0 00-1.454-1.522 6.8 6.8 0 00-1.796-.076c-.983.066-1.956.249-2.896.546a5.837 5.837 0 00-2.415 1.141zm-24.511 23.531c0 .064.657-.393.961-1.509a5.87 5.87 0 00-.734-4.247 16.309 16.309 0 00-1.264-1.952 7.58 7.58 0 00-1.328-1.42 2.295 2.295 0 00-1.265-.52c-.328 0-.493.063-.493.101 0 .038.696.064 1.416.799a8.34 8.34 0 011.126 1.42c.454.612.876 1.247 1.265 1.902a6.05 6.05 0 01.86 3.803 14.378 14.378 0 01-.544 1.623zm13.998-10.485a4.796 4.796 0 00-1.379-3.74 4.683 4.683 0 00-3.427-2.016 22.216 22.216 0 012.896 2.46 22.674 22.674 0 011.91 3.296z" fill="#263238"/><path d="M298.771 434.034c-.606.338-1.181.728-1.72 1.167a49.664 49.664 0 01-4.805 2.954 62.848 62.848 0 01-7.588 3.41c-2.959 1.103-6.323 2.143-9.762 3.157-7.019 2.029-13.367 3.88-17.945 5.262l-5.45 1.711a11.99 11.99 0 00-1.961.71c.69-.094 1.37-.242 2.036-.443l5.476-1.535a1407.682 1407.682 0 0017.995-5.071c3.503-1.027 6.829-2.092 9.788-3.233a57.963 57.963 0 007.651-3.575 38.671 38.671 0 004.73-3.17 12.28 12.28 0 001.555-1.344z" fill="#263238"/><path d="M300.198 434.554a11.193 11.193 0 00-3.3-.887 13.675 13.675 0 00-8.195 1.014 9.692 9.692 0 00-3.465 3.068 16.464 16.464 0 00-1.834 3.271 12.347 12.347 0 00-1.075 3.246c.573-.98 1.08-1.996 1.518-3.043a12.403 12.403 0 015.21-5.883 14.263 14.263 0 017.815-1.128c2.024.165 3.301.444 3.326.342zm69.066-78.568s11.697 4.184 11.735 17.331c.101 25.167-50.735 52.92-50.735 52.92l-67.655-44.932-4.236-1.725s91.366-34.384 110.891-23.594z" fill="#263238"/><path d="M296.876 403.999a12.55 12.55 0 001.771-1.191c1.1-.812 2.68-2.003 4.615-3.512 3.883-2.992 9.143-7.252 14.821-12.134a373.663 373.663 0 0014.202-12.843 229.296 229.296 0 004.16-4.057 11.955 11.955 0 001.442-1.559c-.582.408-1.128.866-1.631 1.369l-4.3 3.892c-3.629 3.284-8.662 7.81-14.328 12.679a792.541 792.541 0 01-14.657 12.272l-4.489 3.677c-.572.426-1.109.896-1.606 1.407zm53.307-38.606a16.78 16.78 0 00-12.317 3.639c.114.19 2.529-1.394 5.994-2.383 3.465-.989 6.323-1.04 6.323-1.256z" fill="#455A64"/><path d="M344.337 361.425a10.35 10.35 0 00-4.01 3.035 10.388 10.388 0 00-2.11 4.572c.202 0 .936-2.041 2.643-4.133 1.707-2.092 3.591-3.297 3.477-3.474z" fill="#455A64"/><path d="M372.968 441.147c0-.076-.81-.241-1.746.533a6.243 6.243 0 00-1.947 3.93 7.738 7.738 0 00.607 4.349c.48 1.026 1.012 1.508 1.075 1.458a12.258 12.258 0 00-.62-1.649 8.769 8.769 0 01-.379-4.057 6.799 6.799 0 011.593-3.676c.721-.749 1.429-.774 1.417-.888z" fill="#263238"/><path d="M353.685 314.844l-24.09 61.237-103.734 1.699-1.922-5.629 36.357-1.319 17.476-54.327 75.913-1.661z" fill="#455A64"/><path d="M305.26 341.393a4.62 4.62 0 014.995.545 4.025 4.025 0 01.974 4.425 4.36 4.36 0 01-3.794 2.624 3.948 3.948 0 01-3.971-2.624 4.483 4.483 0 011.745-4.97" fill="#EBEBEB"/><path d="M336.651 429.306s-95.577-62.86-99.472-64.166c-3.894-1.306-13.379-7.518-22.825-4.906-9.447 2.611-17.945 11.119-22.181 23.543-2.428 7.1-3.566 19.208-4.11 28.299a42.1 42.1 0 009.801 29.921 26.674 26.674 0 0011.912 8.482c.999.317 2.036.583 3.098.811 18.071 3.931 36.673-4.209 46.79-19.702l2.225-3.398s62.534 23.024 63.507 22.707l11.255-21.591z" fill="#263238"/><path d="M218.436 411.999c.168.086.341.162.518.229l1.568.621 6.057 2.345 22.523 8.508c9.56 3.575 21.017 7.835 33.878 12.526 12.86 4.691 27.1 9.826 42.325 14.986l.266.101.139-.266 7.473-14.301 3.794-7.29.139-.279-.265-.165-72.903-46.403-21.903-13.845-5.943-3.728-1.556-.951c-.354-.215-.543-.304-.543-.304l.505.368 1.518 1.001 5.88 3.804 21.852 14.06 72.789 46.581-.126-.456c-1.202 2.32-2.529 4.792-3.794 7.29l-7.461 14.301.417-.165c-15.175-5.147-29.464-10.269-42.338-14.922l-33.928-12.374-22.649-8.343-6.095-2.231-1.594-.558-.543-.14z" fill="#455A64"/><path d="M228.327 188.795c1.632-4.425 5.236-6.339 9.801-7.442a14.606 14.606 0 0113.114 3.385c2.314 2.117 4.008 5.071 6.866 6.339 4.717 2.143 10.749-.989 15.175 1.636a6.688 6.688 0 012.879 3.46 6.709 6.709 0 01.039 4.506 6.697 6.697 0 01-2.819 3.51 6.661 6.661 0 01-4.398.923c3.073 1.446 3.642 6.086 1.53 8.748-2.112 2.663-6.02 3.386-9.295 2.46a18.77 18.77 0 01-8.283-5.718c-2.301-2.536-4.325-5.262-6.829-7.607a14.51 14.51 0 00-9.003-4.285c-4.591-.178-8.852 2.928-11.243 6.846-2.39 3.918-3.313 8.571-3.983 13.135-.67 4.564-1.176 9.204-2.934 13.464-.202.508-.506 1.053-1.024 1.167-.771.165-1.328-.685-1.631-1.407a67.677 67.677 0 01-5.387-25.738c-.064-5.071.518-9.927 3.692-13.946 3.174-4.019 10.496-6.517 13.695-3.499" fill="#263238"/><path d="M217.563 209.245l-7.031 51.196a15.383 15.383 0 007.983 15.654 15.311 15.311 0 005.927 1.754 15.33 15.33 0 0010.913-3.309 15.403 15.403 0 005.628-9.94c.518-3.804.961-7.062 1.049-7.455 0 0 13.165.57 15.871-12.197 1.264-6.175 2.972-19.107 4.35-30.821a24.367 24.367 0 00-4.492-17.098 24.249 24.249 0 00-14.856-9.527l-1.265-.241c-13.467-1.927-22.572 8.469-24.077 21.984z" fill="#FFBE9D"/><path d="M242.034 256.967a30.325 30.325 0 01-15.694-8.127s2.1 9.991 15.062 11.411l.632-3.284z" fill="#EB996E"/><path d="M256.751 221.962a1.848 1.848 0 01-2.124 1.484 1.77 1.77 0 01-1.507-1.313 1.754 1.754 0 01-.036-.703 1.849 1.849 0 012.125-1.496 1.768 1.768 0 011.507 1.322c.059.231.071.471.035.706zm1.461-2.105c-.278.203-1.454-1.103-3.414-1.496-1.96-.393-3.604.317-3.794 0-.19-.317.24-.507.961-.836a4.937 4.937 0 013.06-.317 4.832 4.832 0 012.656 1.483c.544.609.658 1.09.531 1.166zm-20.84-1.09a1.845 1.845 0 01-2.124 1.496 1.802 1.802 0 01-1.2-.689 1.813 1.813 0 01-.356-1.34 1.889 1.889 0 012.125-1.496 1.795 1.795 0 011.204.686 1.78 1.78 0 01.351 1.343zm1.452-2.396c-.278.19-1.454-1.116-3.414-1.509-1.96-.393-3.604.317-3.794 0-.19-.317.24-.507.961-.837a5.057 5.057 0 013.061-.317 5.062 5.062 0 012.668 1.484c.531.684.645 1.09.518 1.179zm4.215 15.987a12.704 12.704 0 013.3.063c.519 0 1.012 0 1.164-.291a2.538 2.538 0 000-1.547c-.228-1.268-.468-2.688-.721-4.133-.974-5.858-1.568-10.625-1.34-10.663.227-.038 1.264 4.679 2.187 10.536.228 1.445.456 2.815.658 4.133a2.927 2.927 0 01-.139 2.029 1.262 1.262 0 01-.961.558c-.29.041-.583.041-.873 0a13.433 13.433 0 01-3.275-.685zm-6.045.229c.329 0-.101 2.18 1.416 4.057 1.518 1.876 3.794 2.104 3.794 2.409 0 .304-.582.304-1.543.139a5.444 5.444 0 01-3.199-1.876 4.767 4.767 0 01-1.05-3.385c.101-.913.443-1.395.582-1.344zm3.87-23.836c-.291.507-2.2-.139-4.565-.329-2.365-.191-4.338.076-4.553-.469-.088-.254.342-.685 1.189-1.053a7.698 7.698 0 013.541-.507 7.567 7.567 0 013.414 1.116c.772.507 1.088 1.014.974 1.242zm17.74 5.274c-.43.381-1.682-.355-3.314-.71-1.631-.355-3.06-.291-3.275-.824-.101-.253.202-.659.898-.963a4.672 4.672 0 012.845-.19 4.556 4.556 0 012.466 1.432c.468.571.582 1.065.38 1.255z" fill="#263238"/><path d="M216.72 218.932c-.203-.14-8.258-4.361-9.725 4.45-1.467 8.812 7.663 8.469 7.714 8.216.051-.254 2.011-12.666 2.011-12.666z" fill="#FFBE9D"/><path d="M212.593 227.807s-.164.088-.442.165a1.583 1.583 0 01-1.151-.165 3.805 3.805 0 01-1.189-3.702c.101-.762.374-1.49.797-2.13.119-.263.3-.494.527-.672.226-.179.492-.301.775-.355a.794.794 0 01.835.583c.076.253 0 .431 0 .444 0 .012.215-.114.202-.482a.999.999 0 00-.253-.609 1.114 1.114 0 00-.809-.367 2.17 2.17 0 00-1.821 1.09 5.356 5.356 0 00-.949 2.371c-.24 1.787.392 3.6 1.607 4.171a1.648 1.648 0 001.441 0c.38-.127.455-.317.43-.342z" fill="#EB996E"/><path d="M265.427 212.073a18.79 18.79 0 01-15.643-6.973c-2.529-3.271-4.211-7.544-7.866-9.522a10.585 10.585 0 00-8.156-.507 20.587 20.587 0 00-7.107 4.336c1.163 6.999-1.935 13.946-4.958 20.286a3.536 3.536 0 01-1.428 1.813c-1.189.595-2.605-.343-3.326-1.471a11.084 11.084 0 01-1.265-6.175 36.99 36.99 0 012.909-14.174 24.993 24.993 0 019.193-11.03 23.58 23.58 0 0117.464-2.904 29.07 29.07 0 0115.314 9.218 17.128 17.128 0 014.135 7.264" fill="#263238"/></svg>